<mxfile host="app.diagrams.net" modified="2024-04-20T13:14:01.576Z" agent="Mozilla/5.0 (Macintosh; Intel Mac OS X 10_15_7) AppleWebKit/537.36 (KHTML, like Gecko) Chrome/123.0.0.0 Safari/537.36" version="24.2.3" etag="LLAiFr0xpbkuM8Z3q8Kx" type="github">
  <diagram name="第 1 页" id="7x1iapyOtfi9wdKs7kBa">
    <mxGraphModel>
      <root>
        <mxCell id="0" />
        <mxCell id="1" parent="0" />
      </root>
    </mxGraphModel>
  </diagram>
</mxfile>
